<svg id="Layer_1" data-name="Layer 1" xmlns="http://www.w3.org/2000/svg" xmlns:xlink="http://www.w3.org/1999/xlink" viewBox="0 0 750.56 199.86"><defs><style>.cls-1{fill:none;}.cls-2{fill:url(#linear-gradient);}.cls-3{fill:url(#linear-gradient-2);}.cls-4{fill:url(#linear-gradient-3);}.cls-5{fill:url(#linear-gradient-4);}.cls-6{fill:url(#linear-gradient-5);}.cls-7{fill:url(#linear-gradient-6);}.cls-8{fill:url(#linear-gradient-7);}.cls-9{fill:url(#linear-gradient-8);}.cls-10{fill:url(#linear-gradient-9);}.cls-11{fill:url(#linear-gradient-10);}.cls-12{fill:url(#linear-gradient-11);}.cls-13{fill:url(#linear-gradient-12);}.cls-14{fill:url(#linear-gradient-13);}.cls-15{fill:url(#linear-gradient-14);}.cls-16{fill:url(#linear-gradient-15);}.cls-17{fill:url(#linear-gradient-16);}.cls-18{fill:url(#linear-gradient-17);}.cls-19{fill:url(#linear-gradient-18);}.cls-20{fill:url(#linear-gradient-19);}.cls-21{fill:url(#linear-gradient-20);}.cls-22{fill:url(#linear-gradient-21);}.cls-23{fill:url(#linear-gradient-22);}.cls-24{fill:url(#linear-gradient-23);}.cls-25{fill:url(#linear-gradient-24);}.cls-26{fill:url(#linear-gradient-25);}.cls-27{fill:url(#linear-gradient-26);}.cls-28{fill:url(#linear-gradient-27);}.cls-29{fill:url(#linear-gradient-28);}.cls-30{fill:url(#linear-gradient-29);}.cls-31{fill:url(#linear-gradient-30);}.cls-32{fill:url(#linear-gradient-31);}.cls-33{fill:url(#linear-gradient-32);}.cls-34{fill:url(#linear-gradient-33);}.cls-35{fill:url(#linear-gradient-34);}.cls-36{fill:url(#linear-gradient-35);}.cls-37{fill:url(#linear-gradient-36);}.cls-38{fill:url(#linear-gradient-37);}.cls-39{fill:url(#linear-gradient-38);}.cls-40{fill:url(#linear-gradient-39);}.cls-41,.cls-42{opacity:0.8;}.cls-41{fill:url(#linear-gradient-40);}.cls-42{fill:url(#linear-gradient-41);}.cls-43{fill:url(#linear-gradient-42);}.cls-44{fill:url(#linear-gradient-43);}.cls-45{fill:url(#linear-gradient-44);}.cls-46{fill:#231f20;}</style><linearGradient id="linear-gradient" x1="2.14" y1="89.45" x2="180.9" y2="13.82" gradientUnits="userSpaceOnUse"><stop offset="0" stop-color="#303188"/><stop offset="0.03" stop-color="#2d358b"/><stop offset="0.24" stop-color="#194d9e"/><stop offset="0.47" stop-color="#0b5eac"/><stop offset="0.71" stop-color="#0369b4"/><stop offset="1" stop-color="#006cb7"/></linearGradient><linearGradient id="linear-gradient-2" x1="2.1" y1="89.24" x2="180.69" y2="13.68" gradientUnits="userSpaceOnUse"><stop offset="0" stop-color="#13437e"/><stop offset="0.05" stop-color="#114885"/><stop offset="0.26" stop-color="#095b9d"/><stop offset="0.48" stop-color="#0468ae"/><stop offset="0.71" stop-color="#0170b9"/><stop offset="1" stop-color="#0072bc"/></linearGradient><linearGradient id="linear-gradient-3" x1="18.36" y1="125.7" x2="51.48" y2="86.23" gradientUnits="userSpaceOnUse"><stop offset="0" stop-color="#262626"/><stop offset="0.32" stop-color="#454647"/><stop offset="1" stop-color="#939598"/></linearGradient><linearGradient id="linear-gradient-4" x1="34.34" y1="145.31" x2="57.69" y2="110.69" gradientUnits="userSpaceOnUse"><stop offset="0" stop-color="#262626"/><stop offset="0.19" stop-color="#353636"/><stop offset="0.56" stop-color="#5d5e60"/><stop offset="1" stop-color="#939598"/></linearGradient><linearGradient id="linear-gradient-5" x1="36.49" y1="136.92" x2="43.28" y2="94.05" gradientUnits="userSpaceOnUse"><stop offset="0" stop-color="#13437e"/><stop offset="0.12" stop-color="#10508c"/><stop offset="0.51" stop-color="#0772b4"/><stop offset="0.81" stop-color="#0287cc"/><stop offset="1" stop-color="#008fd5"/></linearGradient><linearGradient id="linear-gradient-6" x1="262.32" y1="166.25" x2="267.01" y2="77.42" gradientUnits="userSpaceOnUse"><stop offset="0" stop-color="#13437e"/><stop offset="0.02" stop-color="#124681"/><stop offset="0.25" stop-color="#0a599b"/><stop offset="0.49" stop-color="#0467ad"/><stop offset="0.73" stop-color="#016fb8"/><stop offset="1" stop-color="#0072bc"/></linearGradient><linearGradient id="linear-gradient-7" x1="325.5" y1="166.24" x2="330.4" y2="78.06" xlink:href="#linear-gradient-6"/><linearGradient id="linear-gradient-8" x1="387.46" y1="166.45" x2="387.46" y2="78" xlink:href="#linear-gradient-6"/><linearGradient id="linear-gradient-9" x1="449.91" y1="166.45" x2="449.91" y2="78" xlink:href="#linear-gradient-6"/><linearGradient id="linear-gradient-10" x1="539.13" y1="165.92" x2="532.14" y2="77.87" gradientUnits="userSpaceOnUse"><stop offset="0" stop-color="#1f1f1f"/><stop offset="0.17" stop-color="#3d3d3d"/><stop offset="0.35" stop-color="#555"/><stop offset="0.54" stop-color="#666"/><stop offset="0.74" stop-color="#707070"/><stop offset="1" stop-color="#737373"/></linearGradient><linearGradient id="linear-gradient-11" x1="597.44" y1="166.04" x2="589.51" y2="78.17" xlink:href="#linear-gradient-10"/><linearGradient id="linear-gradient-12" x1="661.29" y1="166.31" x2="647.46" y2="77.09" xlink:href="#linear-gradient-10"/><linearGradient id="linear-gradient-13" x1="726.75" y1="164.9" x2="711.5" y2="78.24" xlink:href="#linear-gradient-10"/><linearGradient id="linear-gradient-14" x1="94.97" y1="142.38" x2="142.11" y2="49.68" gradientUnits="userSpaceOnUse"><stop offset="0" stop-color="#34355e"/><stop offset="1" stop-color="#0d3a70"/></linearGradient><linearGradient id="linear-gradient-15" x1="94.52" y1="142.54" x2="141.82" y2="49.53" gradientUnits="userSpaceOnUse"><stop offset="0" stop-color="#34355e"/><stop offset="1" stop-color="#17479e"/></linearGradient><linearGradient id="linear-gradient-16" x1="95.32" y1="140.96" x2="141.11" y2="50.93" gradientUnits="userSpaceOnUse"><stop offset="0" stop-color="#303188"/><stop offset="0.35" stop-color="#1b4b9d"/><stop offset="0.75" stop-color="#0763b0"/><stop offset="1" stop-color="#006cb7"/></linearGradient><linearGradient id="linear-gradient-17" x1="94.56" y1="142.18" x2="141.71" y2="49.48" xlink:href="#linear-gradient-15"/><linearGradient id="linear-gradient-18" x1="95.36" y1="140.61" x2="140.99" y2="50.88" gradientUnits="userSpaceOnUse"><stop offset="0" stop-color="#13437e"/><stop offset="0.14" stop-color="#104b88"/><stop offset="0.7" stop-color="#0467ae"/><stop offset="1" stop-color="#0072bc"/></linearGradient><linearGradient id="linear-gradient-19" x1="92.45" y1="141.13" x2="139.61" y2="48.41" xlink:href="#linear-gradient-15"/><linearGradient id="linear-gradient-20" x1="93.25" y1="139.55" x2="138.89" y2="49.81" xlink:href="#linear-gradient-16"/><linearGradient id="linear-gradient-21" x1="90.15" y1="139.97" x2="137.31" y2="47.24" xlink:href="#linear-gradient-15"/><linearGradient id="linear-gradient-22" x1="90.95" y1="138.4" x2="136.6" y2="48.64" xlink:href="#linear-gradient-16"/><linearGradient id="linear-gradient-23" x1="89.28" y1="139.53" x2="136.44" y2="46.79" xlink:href="#linear-gradient-15"/><linearGradient id="linear-gradient-24" x1="84.01" y1="49.43" x2="157.72" y2="49.43" gradientUnits="userSpaceOnUse"><stop offset="0" stop-color="#fff" stop-opacity="0"/><stop offset="0.01" stop-color="#fff" stop-opacity="0.03"/><stop offset="0.13" stop-color="#fff" stop-opacity="0.28"/><stop offset="0.25" stop-color="#fff" stop-opacity="0.5"/><stop offset="0.36" stop-color="#fff" stop-opacity="0.68"/><stop offset="0.47" stop-color="#fff" stop-opacity="0.82"/><stop offset="0.57" stop-color="#fff" stop-opacity="0.92"/><stop offset="0.66" stop-color="#fff" stop-opacity="0.98"/><stop offset="0.73" stop-color="#fff"/><stop offset="1" stop-color="#fff" stop-opacity="0.7"/></linearGradient><linearGradient id="linear-gradient-25" x1="93.95" y1="141.77" x2="141.05" y2="49.15" xlink:href="#linear-gradient-15"/><linearGradient id="linear-gradient-26" x1="84" y1="50.92" x2="157.72" y2="50.92" xlink:href="#linear-gradient-24"/><linearGradient id="linear-gradient-27" x1="91.24" y1="140.52" x2="138.4" y2="47.79" xlink:href="#linear-gradient-15"/><linearGradient id="linear-gradient-28" x1="84" y1="50.01" x2="157.72" y2="50.01" xlink:href="#linear-gradient-24"/><linearGradient id="linear-gradient-29" x1="99.88" y1="144.89" x2="147.02" y2="52.18" xlink:href="#linear-gradient-15"/><linearGradient id="linear-gradient-30" x1="84" y1="53.94" x2="157.72" y2="53.94" xlink:href="#linear-gradient-24"/><linearGradient id="linear-gradient-31" x1="80.55" y1="135.05" x2="127.7" y2="42.35" xlink:href="#linear-gradient-15"/><linearGradient id="linear-gradient-32" x1="81.35" y1="133.48" x2="126.98" y2="43.75" xlink:href="#linear-gradient-16"/><linearGradient id="linear-gradient-33" x1="84" y1="55.77" x2="157.72" y2="55.77" xlink:href="#linear-gradient-24"/><linearGradient id="linear-gradient-34" x1="82.67" y1="136.13" x2="129.82" y2="43.43" xlink:href="#linear-gradient-15"/><linearGradient id="linear-gradient-35" x1="69.43" y1="100.85" x2="132.46" y2="100.85" gradientUnits="userSpaceOnUse"><stop offset="0" stop-color="#2e3192" stop-opacity="0"/><stop offset="0" stop-color="#2f3292" stop-opacity="0"/><stop offset="0.05" stop-color="#5a5da9" stop-opacity="0.21"/><stop offset="0.09" stop-color="#8082bd" stop-opacity="0.39"/><stop offset="0.14" stop-color="#a2a4cf" stop-opacity="0.56"/><stop offset="0.2" stop-color="#bfc0de" stop-opacity="0.69"/><stop offset="0.25" stop-color="#d6d7ea" stop-opacity="0.81"/><stop offset="0.31" stop-color="#e8e9f3" stop-opacity="0.89"/><stop offset="0.38" stop-color="#f5f5fa" stop-opacity="0.95"/><stop offset="0.45" stop-color="#fdfdfe" stop-opacity="0.99"/><stop offset="0.56" stop-color="#fff"/><stop offset="0.61" stop-color="#fbfbfd" stop-opacity="0.98"/><stop offset="0.66" stop-color="#f0f0f7" stop-opacity="0.93"/><stop offset="0.72" stop-color="#dddeed" stop-opacity="0.84"/><stop offset="0.78" stop-color="#c3c4e0" stop-opacity="0.71"/><stop offset="0.84" stop-color="#a1a3ce" stop-opacity="0.55"/><stop offset="0.9" stop-color="#787ab9" stop-opacity="0.35"/><stop offset="0.97" stop-color="#484ba0" stop-opacity="0.13"/><stop offset="1" stop-color="#2e3192" stop-opacity="0"/></linearGradient><linearGradient id="linear-gradient-36" x1="83.22" y1="136.41" x2="130.37" y2="43.71" xlink:href="#linear-gradient-15"/><linearGradient id="linear-gradient-37" x1="84.02" y1="134.84" x2="129.65" y2="45.11" xlink:href="#linear-gradient-16"/><linearGradient id="linear-gradient-38" x1="69.43" y1="101.56" x2="131.17" y2="101.56" gradientUnits="userSpaceOnUse"><stop offset="0" stop-color="#13437e" stop-opacity="0"/><stop offset="0" stop-color="#14447f" stop-opacity="0"/><stop offset="0.05" stop-color="#456b99" stop-opacity="0.21"/><stop offset="0.09" stop-color="#708db1" stop-opacity="0.39"/><stop offset="0.14" stop-color="#97acc6" stop-opacity="0.56"/><stop offset="0.2" stop-color="#b7c6d8" stop-opacity="0.69"/><stop offset="0.25" stop-color="#d1dae6" stop-opacity="0.81"/><stop offset="0.31" stop-color="#e6ebf1" stop-opacity="0.89"/><stop offset="0.38" stop-color="#f4f6f9" stop-opacity="0.95"/><stop offset="0.45" stop-color="#fcfdfe" stop-opacity="0.99"/><stop offset="0.56" stop-color="#fff"/><stop offset="0.61" stop-color="#fbfcfd" stop-opacity="0.98"/><stop offset="0.66" stop-color="#eef1f6" stop-opacity="0.93"/><stop offset="0.72" stop-color="#d9e1ea" stop-opacity="0.84"/><stop offset="0.78" stop-color="#bbc9da" stop-opacity="0.71"/><stop offset="0.84" stop-color="#95abc5" stop-opacity="0.55"/><stop offset="0.9" stop-color="#6786ac" stop-opacity="0.35"/><stop offset="0.97" stop-color="#315b8e" stop-opacity="0.13"/><stop offset="1" stop-color="#13437e" stop-opacity="0"/></linearGradient><linearGradient id="linear-gradient-39" x1="70.81" y1="202.57" x2="196" y2="56.5" gradientUnits="userSpaceOnUse"><stop offset="0" stop-color="#212121"/><stop offset="0.2" stop-color="#2a2a2a"/><stop offset="0.52" stop-color="#424242"/><stop offset="0.92" stop-color="#6a6a6a"/><stop offset="1" stop-color="#737373"/></linearGradient><linearGradient id="linear-gradient-40" x1="16.85" y1="126.21" x2="196.23" y2="50.32" gradientUnits="userSpaceOnUse"><stop offset="0" stop-color="#fff" stop-opacity="0"/><stop offset="0.12" stop-color="#fff" stop-opacity="0.02"/><stop offset="0.25" stop-color="#fff" stop-opacity="0.06"/><stop offset="0.37" stop-color="#fff" stop-opacity="0.14"/><stop offset="0.5" stop-color="#fff" stop-opacity="0.26"/><stop offset="0.63" stop-color="#fff" stop-opacity="0.4"/><stop offset="0.76" stop-color="#fff" stop-opacity="0.58"/><stop offset="0.88" stop-color="#fff" stop-opacity="0.79"/><stop offset="1" stop-color="#fff"/></linearGradient><linearGradient id="linear-gradient-41" x1="1.34" y1="89.53" x2="180.73" y2="13.64" xlink:href="#linear-gradient-40"/><linearGradient id="linear-gradient-42" x1="100.87" y1="187.92" x2="232.44" y2="74.01" gradientUnits="userSpaceOnUse"><stop offset="0" stop-color="#171717"/><stop offset="0.54" stop-color="#262626" stop-opacity="0.91"/><stop offset="0.8" stop-color="#5b5b5b" stop-opacity="0.58"/><stop offset="0.99" stop-color="#b6b6b6" stop-opacity="0.02"/><stop offset="1" stop-color="#bababa" stop-opacity="0"/></linearGradient><linearGradient id="linear-gradient-43" x1="77.72" y1="208.4" x2="202.87" y2="62.39" xlink:href="#linear-gradient-39"/><linearGradient id="linear-gradient-44" x1="96.33" y1="182.69" x2="227.9" y2="68.77" xlink:href="#linear-gradient-42"/></defs><title>ReedTech_registeredLogo</title><path class="cls-1" d="M279.06,99.52c0-4.24-1.58-9.88-15.2-9.88H249.25v30.93h14.61c13.62,0,15.2-5.71,15.2-10Z" transform="translate(-11.55 -7.07)"/><path class="cls-1" d="M449.79,89.63H434.71v65.18h15.08c13.62,0,15.2-5.64,15.2-9.88V99.52C465,95.27,463.41,89.63,449.79,89.63Z" transform="translate(-11.55 -7.07)"/><path class="cls-2" d="M113.11,7.16A102.18,102.18,0,0,1,196.39,50.8l.34.42A102.21,102.21,0,0,0,113.08,7.07c-55.13,0-100.64,44.7-101.46,99.65l-.07,5,0,0,.07-4.84C12.47,51.86,58,7.16,113.11,7.16Z" transform="translate(-11.55 -7.07)"/><path class="cls-3" d="M196.39,50.8c-.19-.22-.46-.54-.83-.94-5.13-5.61-27.88-26.78-79.07-26.78a88.81,88.81,0,0,0-28.26,4.36c-29.48,9.12-52.9,36.36-58.3,67.79l-.14.78a66.53,66.53,0,0,0-12,8.82,50.57,50.57,0,0,0-6.19,6.82l.07-4.84C12.47,51.86,58,7.16,113.11,7.16A102.19,102.19,0,0,1,196.39,50.8Z" transform="translate(-11.55 -7.07)"/><path class="cls-4" d="M64.25,88.57c-22.35,1.3-42.88,13.75-51.91,27.09a90.2,90.2,0,0,0,1.69,12C22.58,100.35,55.88,90.56,64.25,88.57Z" transform="translate(-11.55 -7.07)"/><path class="cls-5" d="M32.13,147c0-23.95,12.83-45.13,32.78-55.54a59.15,59.15,0,0,0-12.64,5.66,59.84,59.84,0,0,0-27.72,50.6,60.55,60.55,0,0,0,.8,9.75c3.12,5.91,6.1,11.56,10,16.72-3.27-11.15-3.27-16.72-3.27-26.66Z" transform="translate(-11.55 -7.07)"/><path class="cls-6" d="M64.64,90c-7.76,1.66-18.07,5-24.47,9.93-12.48,9.58-21.06,21.12-24.25,36a105.6,105.6,0,0,0,3.5,11.87C24,103.83,60.5,91.4,64.64,90Z" transform="translate(-11.55 -7.07)"/><path class="cls-7" d="M277.52,130.29c11.25-3.49,13.7-11.73,13.7-18.24V98.15C291.22,89,286.48,78,263.86,78H240.65c-2.09,0-3.44,1.54-3.44,3.89v80.66c0,2.4,1.36,3.89,3.56,3.89h4.92c1.08,0,3.56-.37,3.56-3.89V132.07h16.33l14,31.35.23.43a3.82,3.82,0,0,0,3.62,2.59h4.92a3.65,3.65,0,0,0,3.23-1.61,3.39,3.39,0,0,0,.14-3.16Zm-13.65-9.72H249.25V89.63h14.61c13.62,0,15.2,5.64,15.2,9.88v11C279.06,114.86,277.48,120.57,263.86,120.57Z" transform="translate(-11.55 -7.07)"/><path class="cls-8" d="M348.58,154.82h-32.9V125.87h29.38c2.33,0,3.68-1.42,3.68-3.89v-3.6c0-2.47-1.34-3.89-3.68-3.89H315.68V89.63h31.49c2.3,0,3.68-1.46,3.68-3.89V81.89c0-2.44-1.37-3.89-3.68-3.89h-40c-2.2,0-3.56,1.49-3.56,3.89v80.66c0,2.37,1.34,3.89,3.44,3.89h41.5c2.3,0,3.67-1.46,3.67-3.89v-4A3.46,3.46,0,0,0,348.58,154.82Z" transform="translate(-11.55 -7.07)"/><path class="cls-9" d="M408.09,154.82h-32.9V125.87h29.38c2.34,0,3.68-1.42,3.68-3.89v-3.6c0-2.47-1.33-3.89-3.68-3.89H375.19V89.63h31.49c2.3,0,3.68-1.46,3.68-3.89V81.89c0-2.44-1.37-3.89-3.68-3.89h-40c-2.2,0-3.56,1.49-3.56,3.89v80.66c0,2.37,1.35,3.89,3.44,3.89h41.5c2.3,0,3.68-1.46,3.68-3.89v-4A3.45,3.45,0,0,0,408.09,154.82Z" transform="translate(-11.55 -7.07)"/><path class="cls-10" d="M449.79,78H426.11c-2.09,0-3.44,1.54-3.44,3.89v80.66c0,3.61,2.55,3.89,3.33,3.89h23.8c22.6,0,27.36-11,27.36-20.15V98.15C477.15,89,472.39,78,449.79,78ZM465,144.93c0,4.24-1.58,9.88-15.2,9.88H434.71V89.63h15.08c13.62,0,15.2,5.64,15.2,9.88Z" transform="translate(-11.55 -7.07)"/><path class="cls-11" d="M557,78H508.23c-2.34,0-3.68,1.42-3.68,3.89v3.85c0,2.47,1.33,3.89,3.68,3.89h18.25v72.92c0,2.44,1.37,3.89,3.68,3.89h5c2.2,0,3.56-1.49,3.56-3.89V89.63H557c2.3,0,3.68-1.46,3.68-3.89V81.89C560.67,79.46,559.29,78,557,78Z" transform="translate(-11.55 -7.07)"/><path class="cls-12" d="M614.82,154.82h-32.9V125.87H611.3c2.33,0,3.68-1.42,3.68-3.89v-3.6c0-2.47-1.34-3.89-3.68-3.89H581.92V89.63h31.49c2.3,0,3.68-1.46,3.68-3.89V81.89c0-2.44-1.37-3.89-3.68-3.89h-40c-2.2,0-3.56,1.49-3.56,3.89v80.66c0,2.37,1.35,3.89,3.44,3.89h41.5c2.3,0,3.68-1.46,3.68-3.89v-4A3.45,3.45,0,0,0,614.82,154.82Z" transform="translate(-11.55 -7.07)"/><path class="cls-13" d="M654.46,77c-17.69,0-26.65,6.78-26.65,20.15v50.13c0,13.37,9,20.15,26.65,20.15s26.65-6.78,26.65-20.15v-7.94c0-2.4-1.36-3.89-3.56-3.89h-4.69c-2.3,0-3.68,1.46-3.68,3.89v6.58c0,4.6-1.66,9.88-14.61,9.88S640,150.53,640,145.93V98.52c0-4.6,1.66-9.88,14.61-9.88s14.61,5.28,14.61,9.88v5c0,2.52,1.37,4,3.68,4h4.69c2.23,0,3.56-1.5,3.56-4V97.16C681.11,83.79,672.14,77,654.46,77Z" transform="translate(-11.55 -7.07)"/><path class="cls-14" d="M742.92,78h-5c-2.2,0-3.56,1.49-3.56,3.89V114H704V81.89c0-3.51-2.48-3.89-3.56-3.89h-4.92c-2.2,0-3.56,1.49-3.56,3.89v80.66c0,2.4,1.36,3.89,3.56,3.89h4.92c1.08,0,3.56-.37,3.56-3.89V125.49h30.28v37.06c0,2.4,1.36,3.89,3.56,3.89h5c2.2,0,3.56-1.49,3.56-3.89V81.89C746.48,79.49,745.12,78,742.92,78Z" transform="translate(-11.55 -7.07)"/><path class="cls-15" d="M165.46,82.19c0-28.46-28.47-35.36-39.47-35.62H71.26L52.65,65.07h73c2.18.07,21.26,1.1,21.26,17.13,0,13-10.79,16.86-17.11,17.11H69.78L55,117.82h48.86l37.21,48h23.59l-37.34-48h3C131.74,117.73,165.46,115.38,165.46,82.19Zm-41.36,34,37.34,48H141.86l-37.21-48H58.3l12.25-15.36h0l0,0h60c7-.56,17.89-5,17.89-18.64,0-17.5-20.46-18.64-22.8-18.71H56.49L71.92,48.15H126a44.79,44.79,0,0,1,8.89,1.23l.44.11,1.51.39.9.25c.57.17,1.15.35,1.74.54l1.38.49.25.09.94.34a37.68,37.68,0,0,1,9.14,5c7.11,5.19,12.71,13.27,12.71,25.57,0,31.68-32.29,34-33.66,34Z" transform="translate(-11.55 -7.07)"/><path class="cls-16" d="M140.84,51.17l.25.09Z" transform="translate(-11.55 -7.07)"/><path class="cls-17" d="M140.84,51.17l.25.09Z" transform="translate(-11.55 -7.07)"/><path class="cls-18" d="M163.88,82.19c0-12.31-5.6-20.38-12.71-25.57a29.45,29.45,0,0,1,6.55,6.68c-8.56-7.19-13.32-9-16.28-10.19a47.92,47.92,0,0,0-9.17-2.52,50.62,50.62,0,0,0-9.48-.77c-3.28,0-6.47,0-9.72-.08l-9.69-.12c-3.23,0-16.15-1.22-19.38-1.32,3.23-.1,38.73,0,38.73,0a49,49,0,0,1,9.8.59c.78.13,1.56.29,2.34.47A44.79,44.79,0,0,0,126,48.15H71.92L56.49,63.49h69.25c2.34.07,22.8,1.21,22.8,18.71,0,13.64-10.92,18.08-17.89,18.64h1.81l-2.19,1.46H69.43l1.15-1.41h0L58.3,116.24h46.35l37.21,48h19.58l-37.34-48h6.12C131.59,116.15,163.88,113.87,163.88,82.19Z" transform="translate(-11.55 -7.07)"/><path class="cls-19" d="M163.88,82.19c0-12.31-5.6-20.38-12.71-25.57a29.45,29.45,0,0,1,6.55,6.68c-8.56-7.19-13.32-9-16.28-10.19a47.92,47.92,0,0,0-9.17-2.52,50.62,50.62,0,0,0-9.48-.77c-3.28,0-6.47,0-9.72-.08l-9.69-.12c-3.23,0-16.15-1.22-19.38-1.32,3.23-.1,38.73,0,38.73,0a49,49,0,0,1,9.8.59c.78.13,1.56.29,2.34.47A44.79,44.79,0,0,0,126,48.15H71.92L56.49,63.49h69.25c2.34.07,22.8,1.21,22.8,18.71,0,13.64-10.92,18.08-17.89,18.64h1.81l-2.19,1.46H69.43l1.15-1.41h0L58.3,116.24h46.35l37.21,48h19.58l-37.34-48h6.12C131.59,116.15,163.88,113.87,163.88,82.19Z" transform="translate(-11.55 -7.07)"/><path class="cls-20" d="M137.72,50.13c.58.17,1.16.35,1.74.54C138.88,50.48,138.3,50.3,137.72,50.13Z" transform="translate(-11.55 -7.07)"/><path class="cls-21" d="M137.72,50.13c.58.17,1.16.35,1.74.54C138.88,50.48,138.3,50.3,137.72,50.13Z" transform="translate(-11.55 -7.07)"/><path class="cls-22" d="M135.32,49.49l1.51.39Z" transform="translate(-11.55 -7.07)"/><path class="cls-23" d="M135.32,49.49l1.51.39Z" transform="translate(-11.55 -7.07)"/><path class="cls-24" d="M134.88,49.38l.44.11Z" transform="translate(-11.55 -7.07)"/><path class="cls-25" d="M134.88,49.38l.44.11Z" transform="translate(-11.55 -7.07)"/><path class="cls-26" d="M139.46,50.68l1.38.49Z" transform="translate(-11.55 -7.07)"/><path class="cls-27" d="M139.46,50.68l1.38.49Z" transform="translate(-11.55 -7.07)"/><path class="cls-28" d="M136.82,49.88l.9.25Z" transform="translate(-11.55 -7.07)"/><path class="cls-29" d="M136.82,49.88l.9.25Z" transform="translate(-11.55 -7.07)"/><path class="cls-30" d="M142,51.6l-.94-.34a42.24,42.24,0,0,1,10.08,5.36A37.68,37.68,0,0,0,142,51.6Z" transform="translate(-11.55 -7.07)"/><path class="cls-31" d="M142,51.6l-.94-.34a42.24,42.24,0,0,1,10.08,5.36A37.68,37.68,0,0,0,142,51.6Z" transform="translate(-11.55 -7.07)"/><path class="cls-32" d="M122.73,48.31s-35.5-.13-38.73,0c3.23.1,16.15,1.29,19.38,1.32l9.69.12c3.24,0,6.43.09,9.72.08a50.62,50.62,0,0,1,9.48.77,47.92,47.92,0,0,1,9.17,2.52c3,1.15,7.72,3,16.28,10.19a29.45,29.45,0,0,0-6.55-6.68,42.24,42.24,0,0,0-10.08-5.36l-.25-.09-1.38-.49c-.58-.19-1.16-.37-1.74-.54l-.9-.25-1.51-.39-.44-.11c-.78-.18-1.56-.34-2.34-.47A49,49,0,0,0,122.73,48.31Z" transform="translate(-11.55 -7.07)"/><path class="cls-33" d="M122.73,48.31s-35.5-.13-38.73,0c3.23.1,16.15,1.29,19.38,1.32l9.69.12c3.24,0,6.43.09,9.72.08a50.62,50.62,0,0,1,9.48.77,47.92,47.92,0,0,1,9.17,2.52c3,1.15,7.72,3,16.28,10.19a29.45,29.45,0,0,0-6.55-6.68,42.24,42.24,0,0,0-10.08-5.36l-.25-.09-1.38-.49c-.58-.19-1.16-.37-1.74-.54l-.9-.25-1.51-.39-.44-.11c-.78-.18-1.56-.34-2.34-.47A49,49,0,0,0,122.73,48.31Z" transform="translate(-11.55 -7.07)"/><path class="cls-34" d="M122.73,48.31s-35.5-.13-38.73,0c3.23.1,16.15,1.29,19.38,1.32l9.69.12c3.24,0,6.43.09,9.72.08a50.62,50.62,0,0,1,9.48.77,47.92,47.92,0,0,1,9.17,2.52c3,1.15,7.72,3,16.28,10.19a29.45,29.45,0,0,0-6.55-6.68,42.24,42.24,0,0,0-10.08-5.36l-.25-.09-1.38-.49c-.58-.19-1.16-.37-1.74-.54l-.9-.25-1.51-.39-.44-.11c-.78-.18-1.56-.34-2.34-.47A49,49,0,0,0,122.73,48.31Z" transform="translate(-11.55 -7.07)"/><path class="cls-35" d="M130.65,100.83h-60l0,0h59.27Z" transform="translate(-11.55 -7.07)"/><path class="cls-36" d="M130.65,100.83h-60l0,0h59.27Z" transform="translate(-11.55 -7.07)"/><path class="cls-37" d="M130.27,102.29l2.19-1.46h-1.81l-.8,0H70.58l-1.15,1.41Z" transform="translate(-11.55 -7.07)"/><path class="cls-38" d="M130.27,102.29l2.19-1.46h-1.81l-.8,0H70.58l-1.15,1.41Z" transform="translate(-11.55 -7.07)"/><path class="cls-39" d="M129,102.29l2.15-1.46h-1.78l-.78,0H70.56l-1.12,1.41Z" transform="translate(-11.55 -7.07)"/><path class="cls-40" d="M39.15,175l-.54-2c-.45-2.54-.91-5.32-1.35-8.08,12.48,11.24,75.77,62.77,134.45,9.6C219.1,131.55,199,74,188.72,52.1a256.71,256.71,0,0,0-27.86-13.16l.76.59a84,84,0,0,1-51.13,150.76c-44.25,0-74.17-38.39-74.17-38.39l.14,5.06a133.65,133.65,0,0,0,2.06,16l.54,2,.42.41c20.59,20.06,46.48,31.56,71,31.56h.06c-24.53,0-50.39-11.51-71-31.56Z" transform="translate(-11.55 -7.07)"/><path class="cls-41" d="M196.49,50.95l-.1-.14c-.19-.23-.47-.55-.83-.94Z" transform="translate(-11.55 -7.07)"/><path class="cls-42" d="M17.78,104.8c5.83-50.26,49-90.71,100.67-90.71a101.91,101.91,0,0,1,77.12,35.74c.37.4.64.72.83.94A102.19,102.19,0,0,0,113.11,7.13C58,7.13,12.47,51.83,11.65,106.78l-.07,4.84A51,51,0,0,1,17.78,104.8Z" transform="translate(-11.55 -7.07)"/><path class="cls-43" d="M199.88,59.79l-.27-.25A61.38,61.38,0,0,0,188.68,52l0,.08a60.89,60.89,0,0,1,10.79,7.44l.27.25.17.32a96.65,96.65,0,0,1,11.24,46.13A100.81,100.81,0,0,1,110.54,206.93h0a100.81,100.81,0,0,0,100.7-100.69,96.65,96.65,0,0,0-11.24-46.13Z" transform="translate(-11.55 -7.07)"/><path class="cls-44" d="M211.19,106.24a96.65,96.65,0,0,0-11.24-46.13l-.17-.32-.27-.25a60.89,60.89,0,0,0-10.79-7.44C199,74,219.1,131.55,171.71,174.48c-58.68,53.17-122,1.65-134.45-9.6.44,2.76.9,5.53,1.35,8.08l.54,2,.42.41c20.58,20,46.45,31.54,71,31.56A100.81,100.81,0,0,0,211.19,106.24Z" transform="translate(-11.55 -7.07)"/><path class="cls-45" d="M211.19,106.24a96.65,96.65,0,0,0-11.24-46.13l-.17-.32-.27-.25a60.89,60.89,0,0,0-10.79-7.44C199,74,219.1,131.55,171.71,174.48c-58.68,53.17-122,1.65-134.45-9.6.44,2.76.9,5.53,1.35,8.08l.54,2,.42.41c20.58,20,46.45,31.54,71,31.56A100.81,100.81,0,0,0,211.19,106.24Z" transform="translate(-11.55 -7.07)"/><path class="cls-46" d="M204,29.43a4.71,4.71,0,1,1-4.75,4.68A4.68,4.68,0,0,1,204,29.43Zm0,8.72a4,4,0,1,0-3.89-4A3.88,3.88,0,0,0,204,38.15Zm-1.84-6.77h2.13c1.31,0,1.93.52,1.93,1.57a1.42,1.42,0,0,1-1.45,1.5l1.57,2.43h-.92L204,34.52h-.91v2.37h-.86Zm.86,2.44H204c.76,0,1.45,0,1.45-.91s-.63-.84-1.21-.84h-1.13Z" transform="translate(-11.55 -7.07)"/><path class="cls-46" d="M757.38,70.43a4.71,4.71,0,1,1-4.75,4.68A4.68,4.68,0,0,1,757.38,70.43Zm0,8.72a4,4,0,1,0-3.89-4A3.88,3.88,0,0,0,757.38,79.15Zm-1.84-6.77h2.13c1.31,0,1.93.52,1.93,1.57a1.42,1.42,0,0,1-1.45,1.5l1.57,2.43h-.92l-1.5-2.37h-.91v2.37h-.86Zm.86,2.44h.89c.75,0,1.45,0,1.45-.91s-.63-.84-1.21-.84H756.4Z" transform="translate(-11.55 -7.07)"/></svg>