<svg id="Layer_1" data-name="Layer 1" xmlns="http://www.w3.org/2000/svg" viewBox="0 0 228.37 228.5"><defs><style>.cls-1{fill:#fff;}</style></defs><title>Reed_Tech_icon_white</title><path class="cls-1" d="M123.72,15.85c37.64,0,73.18,18.64,95.22,49.9l.38.47c-22-31.61-57.76-50.48-95.64-50.48-63,0-115.06,51.11-116,113.93l-.08,5.68,0,0,.08-5.54C8.66,67,60.69,15.85,123.72,15.85Z" transform="translate(-7.61 -15.75)"/><path class="cls-1" d="M218.94,65.75c-.22-.25-.53-.62-.95-1.07-5.86-6.41-31.87-30.62-90.4-30.62a101.54,101.54,0,0,0-32.31,5c-33.7,10.43-60.48,41.57-66.65,77.5l-.16.89a76.07,76.07,0,0,0-13.74,10.08,57.82,57.82,0,0,0-7.08,7.8l.08-5.53c.94-62.82,53-113.93,116-113.93C161.36,15.85,196.89,34.49,218.94,65.75Z" transform="translate(-7.61 -15.75)"/><path class="cls-1" d="M67.87,108.93c-25.55,1.48-49,15.72-59.35,31a103.17,103.17,0,0,0,1.93,13.66C20.23,122.4,58.29,111.21,67.87,108.93Z" transform="translate(-7.61 -15.75)"/><path class="cls-1" d="M31.14,175.75c0-27.38,14.66-51.59,37.48-63.49a67.61,67.61,0,0,0-14.45,6.48,68.42,68.42,0,0,0-31.7,57.85,69.2,69.2,0,0,0,.92,11.15c3.56,6.76,7,13.22,11.49,19.12-3.74-12.75-3.73-19.12-3.73-30.48Z" transform="translate(-7.61 -15.75)"/><path class="cls-1" d="M68.31,110.56c-8.87,1.9-20.66,5.73-28,11.35-14.26,11-24.07,24.14-27.72,41.17a120.7,120.7,0,0,0,4,13.57C21.79,126.38,63.57,112.16,68.31,110.56Z" transform="translate(-7.61 -15.75)"/><path class="cls-1" d="M143.39,142.36c1.64-.1,40.19-2.78,40.19-40.73,0-32.53-32.55-40.43-45.13-40.72H75.88L54.6,82.07l83.51,0c2.48.08,24.31,1.26,24.31,19.58,0,14.84-12.34,19.28-19.56,19.56H74.19L57.3,142.38l55.86,0,42.54,54.9h27L140,142.36Z" transform="translate(-7.61 -15.75)"/><path class="cls-1" d="M219.06,65.91l-.12-.16c-.22-.26-.53-.62-1-1.08C218.34,65.09,218.71,65.5,219.06,65.91Z" transform="translate(-7.61 -15.75)"/><path class="cls-1" d="M222.93,76l-.31-.29a70.2,70.2,0,0,0-12.5-8.6l0,.09a69.65,69.65,0,0,1,12.34,8.51l.31.29.19.37a110.5,110.5,0,0,1,12.85,52.74A115.25,115.25,0,0,1,120.79,244.25h.06A115.25,115.25,0,0,0,236,129.13a110.5,110.5,0,0,0-12.85-52.74Z" transform="translate(-7.61 -15.75)"/><path class="cls-1" d="M235.86,129.13A115.25,115.25,0,0,1,120.79,244.25h-.06c-28.06,0-57.66-13.15-81.2-36.08l-.48-.47-.62-2.29a154.32,154.32,0,0,1-2.35-18.29l-.16-5.79s34.22,43.89,84.81,43.89A96.09,96.09,0,0,0,179.19,52.86l-.86-.66c.55.21,18.11,7.19,31.84,15a69.54,69.54,0,0,1,12.34,8.51l.31.29.19.37A110.52,110.52,0,0,1,235.86,129.13Z" transform="translate(-7.61 -15.75)"/><path class="cls-1" d="M222.31,39.23a4.49,4.49,0,1,1-4.52,4.46A4.46,4.46,0,0,1,222.31,39.23Zm0,8.31a3.83,3.83,0,1,0-3.71-3.85A3.7,3.7,0,0,0,222.31,47.54Zm-1.75-6.45h2c1.25,0,1.84.49,1.84,1.5A1.35,1.35,0,0,1,223,44l1.5,2.31h-.88l-1.43-2.25h-.86v2.25h-.82Zm.82,2.33h.85c.72,0,1.38,0,1.38-.86s-.6-.8-1.15-.8h-1.08Z" transform="translate(-7.61 -15.75)"/></svg>